<?xml version="1.0" encoding="utf-8"?>
<!-- Generator: Adobe Illustrator 23.0.4, SVG Export Plug-In . SVG Version: 6.00 Build 0)  -->
<svg version="1.1" id="Layer_1" xmlns="http://www.w3.org/2000/svg" xmlns:xlink="http://www.w3.org/1999/xlink" x="0px" y="0px"
	 viewBox="0 0 108 9.57" style="enable-background:new 0 0 108 9.57;" xml:space="preserve">
<style type="text/css">
	.st0{fill:#037CBA;}
</style>
<g>
	<path class="st0" d="M2.82,8.14c0.86,0,1.1-0.37,1.11-1.63l1.59,0.2C5.49,8.67,4.95,9.53,2.85,9.53C0.9,9.53,0,8.41,0,4.78
		c0-3.62,0.9-4.75,2.85-4.75c2.1,0,2.64,0.86,2.66,2.82L3.93,3.07C3.92,1.8,3.68,1.43,2.82,1.43c-0.98,0-1.21,1.08-1.21,3.35
		S1.84,8.14,2.82,8.14z"/>
	<path class="st0" d="M6.43,9.4V0.17h3.11c1.2,0,2.08,0.44,2.08,2.45c0,1.2-0.39,1.72-0.88,1.94c0.66,0.17,1.14,0.79,1.14,2.23
		c0,2-0.84,2.62-2.27,2.62H6.43z M8.04,1.6v2.37h1.15c0.5,0,0.82-0.32,0.82-1.22c0-0.94-0.3-1.15-0.82-1.15H8.04z M9.27,7.97
		c0.6,0,1-0.21,1-1.23c0-1.1-0.44-1.35-0.95-1.35H8.04v2.58H9.27z"/>
	<path class="st0" d="M16.26,6.89c0-0.97-0.39-1.2-1.44-1.48c-1.11-0.3-2.17-0.76-2.17-2.72c0-1.82,0.69-2.69,2.64-2.69
		c2.19,0,2.42,1.14,2.44,2.84l-1.55,0.2c0-1.03-0.08-1.62-0.94-1.62c-0.64,0-0.98,0.34-0.98,1.22c0,0.96,0.28,1.14,1.28,1.36
		c1.4,0.3,2.29,0.79,2.31,2.78c0,2.05-0.92,2.78-2.78,2.78c-2.14,0-2.57-0.96-2.58-2.87l1.54-0.2c0.01,1.14,0.15,1.65,1.08,1.65
		C15.9,8.15,16.26,7.8,16.26,6.89z"/>
	<path class="st0" d="M24.11,2.49l-0.9,7h-2.17l-0.9-9.32h1.49l0.59,7.08l0.97-7.08h1.81l0.97,7.08l0.59-7.08h1.5l-0.91,9.32H25
		L24.11,2.49z"/>
	<path class="st0" d="M33.29,0.17V1.6h-2.78v2.37h2.32v1.42h-2.32v2.58h2.95V9.4h-4.55V0.17H33.29z"/>
	<path class="st0" d="M34.37,9.4V0.17h3.11c1.2,0,2.08,0.44,2.08,2.45c0,1.2-0.39,1.72-0.88,1.94c0.66,0.17,1.14,0.79,1.14,2.23
		c0,2-0.84,2.62-2.27,2.62H34.37z M35.98,1.6v2.37h1.15c0.5,0,0.82-0.32,0.82-1.22c0-0.94-0.3-1.15-0.82-1.15H35.98z M37.21,7.97
		c0.6,0,1-0.21,1-1.23c0-1.1-0.44-1.35-0.95-1.35h-1.28v2.58H37.21z"/>
	<path class="st0" d="M44.23,9.4h-1.6V0.17h2.53c1.36,0,2.49,0.57,2.49,2.96c0,2.42-1.1,2.97-2.45,2.97h-0.97V9.4z M45.08,4.67
		c0.65,0,0.95-0.37,0.95-1.54c0-1.16-0.3-1.53-0.95-1.53h-0.85v3.07H45.08z"/>
	<path class="st0" d="M50.11,9.4H48.5V0.17h2.61c1.35,0,2.49,0.38,2.49,2.85c0,1.67-0.51,2.36-1.16,2.69L53.8,9.4h-1.82l-1.07-3.5
		h-0.79V9.4z M50.9,4.45c0.66,0,1.08-0.19,1.08-1.43c0-1.23-0.41-1.42-1.08-1.42h-0.78v2.85H50.9z"/>
	<path class="st0" d="M59.87,4.78c0,3.33-0.51,4.75-2.78,4.75c-2.27,0-2.78-1.42-2.78-4.75s0.51-4.75,2.78-4.75
		C59.37,0.04,59.87,1.46,59.87,4.78z M58.26,4.78c0-2.52-0.2-3.35-1.17-3.35s-1.17,0.83-1.17,3.35c0,2.52,0.2,3.35,1.17,3.35
		S58.26,7.31,58.26,4.78z"/>
	<path class="st0" d="M65.05,0.17v6.82c0,1.88-0.77,2.55-2.38,2.55c-1.87,0-2.26-0.92-2.26-2.4l1.55-0.19
		c0,0.78,0.14,1.22,0.75,1.21c0.6-0.01,0.76-0.34,0.76-1.15V0.17H65.05z"/>
	<path class="st0" d="M70.61,0.17V1.6h-2.78v2.37h2.32v1.42h-2.32v2.58h2.95V9.4h-4.55V0.17H70.61z"/>
	<path class="st0" d="M74.37,8.14c0.86,0,1.1-0.37,1.11-1.63l1.59,0.2c-0.02,1.97-0.57,2.83-2.66,2.83c-1.95,0-2.85-1.12-2.85-4.75
		c0-3.62,0.9-4.75,2.85-4.75c2.1,0,2.64,0.86,2.66,2.82l-1.59,0.21c-0.01-1.27-0.25-1.63-1.11-1.63c-0.98,0-1.21,1.08-1.21,3.35
		S73.38,8.14,74.37,8.14z"/>
	<path class="st0" d="M80.72,9.4h-1.6V1.6h-1.66V0.17h4.91V1.6h-1.66V9.4z"/>
	<path class="st0" d="M84.99,9.4V0.17h3.11c1.2,0,2.08,0.44,2.08,2.45c0,1.2-0.39,1.72-0.88,1.94c0.66,0.17,1.14,0.79,1.14,2.23
		c0,2-0.84,2.62-2.27,2.62H84.99z M86.61,1.6v2.37h1.15c0.5,0,0.82-0.32,0.82-1.22c0-0.94-0.3-1.15-0.82-1.15H86.61z M87.84,7.97
		c0.6,0,1-0.21,1-1.23c0-1.1-0.44-1.35-0.95-1.35h-1.28v2.58H87.84z"/>
	<path class="st0" d="M92.97,7.97h2.5V9.4h-4.1V0.17h1.6V7.97z"/>
	<path class="st0" d="M101.48,4.78c0,3.33-0.51,4.75-2.78,4.75c-2.27,0-2.78-1.42-2.78-4.75s0.51-4.75,2.78-4.75
		C100.97,0.04,101.48,1.46,101.48,4.78z M99.87,4.78c0-2.52-0.2-3.35-1.17-3.35s-1.17,0.83-1.17,3.35c0,2.52,0.2,3.35,1.17,3.35
		S99.87,7.31,99.87,4.78z"/>
	<path class="st0" d="M105.33,0.04c2.18,0,2.64,0.86,2.67,2.82l-1.59,0.21c-0.01-1.27-0.27-1.63-1.11-1.63c-1.08,0-1.33,1-1.33,3.35
		s0.07,3.35,1.36,3.35c0.53,0,0.84-0.09,1.11-0.23V5.66h-1.04V4.33h2.58v4.51c-0.72,0.46-1.44,0.69-2.69,0.69
		c-2.34,0-2.94-1.35-2.94-4.75C102.36,1.4,103.03,0.04,105.33,0.04z"/>
</g>
</svg>
